<svg width="667" height="226" viewBox="0 0 667 226" fill="none" xmlns="http://www.w3.org/2000/svg">
<rect x="36" y="8" width="631" height="1" fill="#F3F3F5"/>
<rect x="36" y="45" width="631" height="1" fill="#F3F3F5"/>
<rect x="36" y="82" width="631" height="1" fill="#F3F3F5"/>
<rect x="36" y="119" width="631" height="1" fill="#F3F3F5"/>
<rect x="36" y="156" width="631" height="1" fill="#F3F3F5"/>
<rect x="36" y="193" width="631" height="1" fill="#F3F3F5"/>
<path d="M78.6464 215.909H79.7544C79.7036 214.483 78.3879 213.416 76.5597 213.416C74.7501 213.416 73.3282 214.469 73.3282 216.057C73.3282 217.331 74.2515 218.088 75.7288 218.513L76.8921 218.845C77.8893 219.122 78.7757 219.473 78.7757 220.415C78.7757 221.449 77.7785 222.132 76.4674 222.132C75.341 222.132 74.3438 221.634 74.2515 220.562H73.0697C73.1805 222.114 74.4362 223.166 76.4674 223.166C78.6464 223.166 79.8836 221.966 79.8836 220.433C79.8836 218.661 78.2032 218.088 77.2245 217.83L76.2643 217.571C75.5626 217.386 74.4362 217.017 74.4362 216.001C74.4362 215.097 75.2671 214.432 76.5228 214.432C77.6677 214.432 78.5356 214.977 78.6464 215.909ZM83.7049 223.166C84.9421 223.166 85.5884 222.501 85.81 222.04H85.8654V223H86.9549V218.328C86.9549 216.075 85.2376 215.817 84.3327 215.817C83.2617 215.817 82.043 216.186 81.489 217.479L82.5231 217.848C82.7631 217.331 83.331 216.777 84.3697 216.777C85.3714 216.777 85.8654 217.308 85.8654 218.217V218.254C85.8654 218.781 85.3299 218.734 84.0373 218.901C82.7216 219.071 81.2859 219.362 81.2859 220.987C81.2859 222.372 82.3569 223.166 83.7049 223.166ZM83.8711 222.188C83.0032 222.188 82.3754 221.8 82.3754 221.043C82.3754 220.212 83.1325 219.953 83.9819 219.842C84.4435 219.787 85.6808 219.658 85.8654 219.436V220.433C85.8654 221.32 85.1637 222.188 83.8711 222.188ZM92.0273 215.909H90.5131V214.21H89.4236V215.909H88.3525V216.832H89.4236V221.264C89.4236 222.501 90.4207 223.092 91.344 223.092C91.7503 223.092 92.0088 223.018 92.1565 222.963L91.9349 221.984C91.8426 222.003 91.6949 222.04 91.4548 222.04C90.9747 222.04 90.5131 221.892 90.5131 220.969V216.832H92.0273V215.909Z" fill="#718EBF"/>
<path d="M166.591 215.909H167.699C167.648 214.483 166.333 213.416 164.505 213.416C162.695 213.416 161.273 214.469 161.273 216.057C161.273 217.331 162.196 218.088 163.674 218.513L164.837 218.845C165.834 219.122 166.72 219.473 166.72 220.415C166.72 221.449 165.723 222.132 164.412 222.132C163.286 222.132 162.289 221.634 162.196 220.562H161.015C161.125 222.114 162.381 223.166 164.412 223.166C166.591 223.166 167.828 221.966 167.828 220.433C167.828 218.661 166.148 218.088 165.169 217.83L164.209 217.571C163.507 217.386 162.381 217.017 162.381 216.001C162.381 215.097 163.212 214.432 164.468 214.432C165.613 214.432 166.48 214.977 166.591 215.909ZM174.032 220.101C174.032 221.43 173.016 222.04 172.204 222.04C171.299 222.04 170.653 221.375 170.653 220.341V215.909H169.563V220.415C169.563 222.224 170.523 223.092 171.853 223.092C172.924 223.092 173.626 222.52 173.958 221.8H174.032V223H175.121V215.909H174.032V220.101ZM178.206 218.734C178.206 217.497 178.973 216.795 180.016 216.795C181.027 216.795 181.641 217.456 181.641 218.568V223H182.73V218.494C182.73 216.685 181.766 215.817 180.33 215.817C179.259 215.817 178.594 216.297 178.262 217.017H178.169V215.909H177.117V223H178.206V218.734Z" fill="#718EBF"/>
<path d="M250.182 213.545V223H251.253V215.817H251.345L254.299 223H255.333L258.288 215.817H258.38V223H259.451V213.545H258.085L254.872 221.393H254.761L251.548 213.545H250.182ZM264.48 223.148C266.4 223.148 267.693 221.689 267.693 219.491C267.693 217.276 266.4 215.817 264.48 215.817C262.559 215.817 261.267 217.276 261.267 219.491C261.267 221.689 262.559 223.148 264.48 223.148ZM264.48 222.169C263.021 222.169 262.356 220.913 262.356 219.491C262.356 218.07 263.021 216.795 264.48 216.795C265.939 216.795 266.603 218.07 266.603 219.491C266.603 220.913 265.939 222.169 264.48 222.169ZM270.446 218.734C270.446 217.497 271.212 216.795 272.255 216.795C273.266 216.795 273.88 217.456 273.88 218.568V223H274.97V218.494C274.97 216.685 274.005 215.817 272.569 215.817C271.498 215.817 270.833 216.297 270.501 217.017H270.409V215.909H269.356V223H270.446V218.734Z" fill="#718EBF"/>
<path d="M341.88 214.561H344.853V223H345.998V214.561H348.971V213.545H341.88V214.561ZM354.094 220.101C354.094 221.43 353.078 222.04 352.266 222.04C351.361 222.04 350.715 221.375 350.715 220.341V215.909H349.625V220.415C349.625 222.224 350.585 223.092 351.915 223.092C352.986 223.092 353.688 222.52 354.02 221.8H354.094V223H355.183V215.909H354.094V220.101ZM360.152 223.148C361.592 223.148 362.645 222.428 362.977 221.357L361.925 221.061C361.648 221.8 361.006 222.169 360.152 222.169C358.873 222.169 357.991 221.343 357.941 219.824H363.088V219.362C363.088 216.722 361.518 215.817 360.041 215.817C358.121 215.817 356.846 217.331 356.846 219.51C356.846 221.689 358.102 223.148 360.152 223.148ZM357.941 218.882C358.014 217.779 358.795 216.795 360.041 216.795C361.223 216.795 361.98 217.682 361.98 218.882H357.941Z" fill="#718EBF"/>
<path d="M431.202 223H432.384L434.471 215.466H434.544L436.631 223H437.813L440.398 213.545H439.235L437.259 221.246H437.167L435.154 213.545H433.861L431.848 221.246H431.756L429.78 213.545H428.617L431.202 223ZM443.99 223.148C445.43 223.148 446.483 222.428 446.815 221.357L445.762 221.061C445.485 221.8 444.844 222.169 443.99 222.169C442.711 222.169 441.829 221.343 441.778 219.824H446.926V219.362C446.926 216.722 445.356 215.817 443.879 215.817C441.958 215.817 440.684 217.331 440.684 219.51C440.684 221.689 441.94 223.148 443.99 223.148ZM441.778 218.882C441.852 217.779 442.632 216.795 443.879 216.795C445.061 216.795 445.818 217.682 445.818 218.882H441.778ZM451.261 223.148C452.627 223.148 453.089 222.298 453.329 221.911H453.458V223H454.511V213.545H453.421V217.036H453.329C453.089 216.666 452.664 215.817 451.279 215.817C449.488 215.817 448.251 217.239 448.251 219.473C448.251 221.726 449.488 223.148 451.261 223.148ZM451.408 222.169C450.042 222.169 449.34 220.969 449.34 219.455C449.34 217.959 450.023 216.795 451.408 216.795C452.738 216.795 453.44 217.866 453.44 219.455C453.44 221.061 452.719 222.169 451.408 222.169Z" fill="#718EBF"/>
<path d="M520.84 214.561H523.813V223H524.958V214.561H527.931V213.545H520.84V214.561ZM530.64 218.734C530.64 217.497 531.429 216.795 532.505 216.795C533.53 216.795 534.148 217.442 534.148 218.568V223H535.238V218.494C535.238 216.671 534.268 215.817 532.819 215.817C531.702 215.817 531.065 216.283 530.732 217.017H530.64V213.545H529.55V223H530.64V218.734ZM541.7 220.101C541.7 221.43 540.684 222.04 539.872 222.04C538.967 222.04 538.321 221.375 538.321 220.341V215.909H537.231V220.415C537.231 222.224 538.191 223.092 539.521 223.092C540.592 223.092 541.294 222.52 541.626 221.8H541.7V223H542.789V215.909H541.7V220.101Z" fill="#718EBF"/>
<path d="M615.407 223H616.552V218.771H620.651V217.756H616.552V214.561H621.076V213.545H615.407V223ZM622.813 223H623.903V218.513C623.903 217.553 624.66 216.851 625.694 216.851C625.985 216.851 626.285 216.906 626.359 216.925V215.817C626.234 215.808 625.948 215.798 625.786 215.798C624.937 215.798 624.198 216.278 623.939 216.98H623.866V215.909H622.813V223ZM627.65 223H628.739V215.909H627.65V223ZM628.204 214.727C628.629 214.727 628.98 214.395 628.98 213.989C628.98 213.582 628.629 213.25 628.204 213.25C627.779 213.25 627.428 213.582 627.428 213.989C627.428 214.395 627.779 214.727 628.204 214.727Z" fill="#718EBF"/>
<path d="M4.77406 13.1293C6.57449 13.1293 7.8948 11.7997 7.8948 9.99006C7.8948 8.15732 6.62065 6.81392 4.88485 6.81392C4.24778 6.81392 3.62917 7.04013 3.24139 7.34943H3.18599L3.51838 4.56108H7.47008V3.54545H2.55815L1.98571 8.19886L3.05673 8.32812C3.44913 8.04652 4.11852 7.84339 4.7002 7.84801C5.9051 7.85724 6.78684 8.77131 6.78684 10.0085C6.78684 11.2227 5.93741 12.1136 4.77406 12.1136C3.8046 12.1136 3.03365 11.4904 2.94593 10.6364H1.83798C1.90723 12.0767 3.14906 13.1293 4.77406 13.1293ZM12.8125 13.1293C14.8991 13.1293 16.0994 11.3612 16.0994 8.27273C16.0994 5.20739 14.8807 3.41619 12.8125 3.41619C10.7443 3.41619 9.52557 5.20739 9.52557 8.27273C9.52557 11.3612 10.7259 13.1293 12.8125 13.1293ZM12.8125 12.1136C11.4368 12.1136 10.6335 10.7333 10.6335 8.27273C10.6335 5.81676 11.446 4.41335 12.8125 4.41335C14.179 4.41335 14.9915 5.81676 14.9915 8.27273C14.9915 10.7333 14.1882 12.1136 12.8125 12.1136ZM20.9375 13.1293C23.0241 13.1293 24.2244 11.3612 24.2244 8.27273C24.2244 5.20739 23.0057 3.41619 20.9375 3.41619C18.8693 3.41619 17.6506 5.20739 17.6506 8.27273C17.6506 11.3612 18.8509 13.1293 20.9375 13.1293ZM20.9375 12.1136C19.5618 12.1136 18.7585 10.7333 18.7585 8.27273C18.7585 5.81676 19.571 4.41335 20.9375 4.41335C22.304 4.41335 23.1165 5.81676 23.1165 8.27273C23.1165 10.7333 22.3132 12.1136 20.9375 12.1136Z" fill="#718EBF"/>
<path d="M2.16628 48.0611H6.61657V50H7.70605V48.0611H8.99867V47.0455H7.70605V40.5455H6.32111L2.16628 47.1193V48.0611ZM6.61657 47.0455H3.4035V46.9716L6.5427 42.0043H6.61657V47.0455ZM13.8125 50.1293C15.8991 50.1293 17.0994 48.3612 17.0994 45.2727C17.0994 42.2074 15.8807 40.4162 13.8125 40.4162C11.7443 40.4162 10.5256 42.2074 10.5256 45.2727C10.5256 48.3612 11.7259 50.1293 13.8125 50.1293ZM13.8125 49.1136C12.4368 49.1136 11.6335 47.7333 11.6335 45.2727C11.6335 42.8168 12.446 41.4134 13.8125 41.4134C15.179 41.4134 15.9915 42.8168 15.9915 45.2727C15.9915 47.7333 15.1882 49.1136 13.8125 49.1136ZM21.9375 50.1293C24.0241 50.1293 25.2244 48.3612 25.2244 45.2727C25.2244 42.2074 24.0057 40.4162 21.9375 40.4162C19.8693 40.4162 18.6506 42.2074 18.6506 45.2727C18.6506 48.3612 19.8509 50.1293 21.9375 50.1293ZM21.9375 49.1136C20.5618 49.1136 19.7585 47.7333 19.7585 45.2727C19.7585 42.8168 20.571 41.4134 21.9375 41.4134C23.304 41.4134 24.1165 42.8168 24.1165 45.2727C24.1165 47.7333 23.3132 49.1136 21.9375 49.1136Z" fill="#718EBF"/>
<path d="M5.64595 87.1293C7.47869 87.1293 8.84055 85.9798 8.84055 84.4332C8.84055 83.233 8.12962 82.3604 6.93857 82.1619V82.0881C7.89418 81.7972 8.4897 81.0124 8.4897 79.946C8.4897 78.6072 7.43253 77.4162 5.68288 77.4162C4.04865 77.4162 2.69141 78.4226 2.63601 79.9091H3.74396C3.78551 78.9673 4.68111 78.4134 5.66442 78.4134C6.70774 78.4134 7.38175 79.0458 7.38175 80.0014C7.38175 80.9986 6.60156 81.6449 5.47976 81.6449H4.72266V82.6605H5.47976C6.91548 82.6605 7.71413 83.3899 7.71413 84.4332C7.71413 85.435 6.84162 86.1136 5.62749 86.1136C4.53338 86.1136 3.66548 85.5504 3.59624 84.6364H2.43288C2.50213 86.1229 3.81321 87.1293 5.64595 87.1293ZM13.8125 87.1293C15.8991 87.1293 17.0994 85.3612 17.0994 82.2727C17.0994 79.2074 15.8807 77.4162 13.8125 77.4162C11.7443 77.4162 10.5256 79.2074 10.5256 82.2727C10.5256 85.3612 11.7259 87.1293 13.8125 87.1293ZM13.8125 86.1136C12.4368 86.1136 11.6335 84.7333 11.6335 82.2727C11.6335 79.8168 12.446 78.4134 13.8125 78.4134C15.179 78.4134 15.9915 79.8168 15.9915 82.2727C15.9915 84.7333 15.1882 86.1136 13.8125 86.1136ZM21.9375 87.1293C24.0241 87.1293 25.2244 85.3612 25.2244 82.2727C25.2244 79.2074 24.0057 77.4162 21.9375 77.4162C19.8693 77.4162 18.6506 79.2074 18.6506 82.2727C18.6506 85.3612 19.8509 87.1293 21.9375 87.1293ZM21.9375 86.1136C20.5618 86.1136 19.7585 84.7333 19.7585 82.2727C19.7585 79.8168 20.571 78.4134 21.9375 78.4134C23.304 78.4134 24.1165 79.8168 24.1165 82.2727C24.1165 84.7333 23.3132 86.1136 21.9375 86.1136Z" fill="#718EBF"/>
<path d="M1.8576 124H7.82209V122.984H3.4272V122.911L5.55078 120.639C7.17578 118.899 7.65589 118.086 7.65589 117.038C7.65589 115.58 6.47408 114.416 4.81214 114.416C3.15483 114.416 1.89453 115.543 1.89453 117.205H2.98402C2.98402 116.129 3.68111 115.413 4.77521 115.413C5.80007 115.413 6.58487 116.041 6.58487 117.038C6.58487 117.911 6.07244 118.557 4.97834 119.753L1.8576 123.169V124ZM12.8125 124.129C14.8991 124.129 16.0994 122.361 16.0994 119.273C16.0994 116.207 14.8807 114.416 12.8125 114.416C10.7443 114.416 9.52557 116.207 9.52557 119.273C9.52557 122.361 10.7259 124.129 12.8125 124.129ZM12.8125 123.114C11.4368 123.114 10.6335 121.733 10.6335 119.273C10.6335 116.817 11.446 115.413 12.8125 115.413C14.179 115.413 14.9915 116.817 14.9915 119.273C14.9915 121.733 14.1882 123.114 12.8125 123.114ZM20.9375 124.129C23.0241 124.129 24.2244 122.361 24.2244 119.273C24.2244 116.207 23.0057 114.416 20.9375 114.416C18.8693 114.416 17.6506 116.207 17.6506 119.273C17.6506 122.361 18.8509 124.129 20.9375 124.129ZM20.9375 123.114C19.5618 123.114 18.7585 121.733 18.7585 119.273C18.7585 116.817 19.571 115.413 20.9375 115.413C22.304 115.413 23.1165 116.817 23.1165 119.273C23.1165 121.733 22.3132 123.114 20.9375 123.114Z" fill="#718EBF"/>
<path d="M5.00959 151.545H3.8647L1.50107 153.115V154.278L3.8093 152.746H3.8647V161H5.00959V151.545ZM10.8125 161.129C12.8991 161.129 14.0994 159.361 14.0994 156.273C14.0994 153.207 12.8807 151.416 10.8125 151.416C8.74432 151.416 7.52557 153.207 7.52557 156.273C7.52557 159.361 8.72585 161.129 10.8125 161.129ZM10.8125 160.114C9.43679 160.114 8.63352 158.733 8.63352 156.273C8.63352 153.817 9.44602 152.413 10.8125 152.413C12.179 152.413 12.9915 153.817 12.9915 156.273C12.9915 158.733 12.1882 160.114 10.8125 160.114ZM18.9375 161.129C21.0241 161.129 22.2244 159.361 22.2244 156.273C22.2244 153.207 21.0057 151.416 18.9375 151.416C16.8693 151.416 15.6506 153.207 15.6506 156.273C15.6506 159.361 16.8509 161.129 18.9375 161.129ZM18.9375 160.114C17.5618 160.114 16.7585 158.733 16.7585 156.273C16.7585 153.817 17.571 152.413 18.9375 152.413C20.304 152.413 21.1165 153.817 21.1165 156.273C21.1165 158.733 20.3132 160.114 18.9375 160.114Z" fill="#718EBF"/>
<path d="M18.9375 198.129C21.0241 198.129 22.2244 196.361 22.2244 193.273C22.2244 190.207 21.0057 188.416 18.9375 188.416C16.8693 188.416 15.6506 190.207 15.6506 193.273C15.6506 196.361 16.8509 198.129 18.9375 198.129ZM18.9375 197.114C17.5618 197.114 16.7585 195.733 16.7585 193.273C16.7585 190.817 17.571 189.413 18.9375 189.413C20.304 189.413 21.1165 190.817 21.1165 193.273C21.1165 195.733 20.3132 197.114 18.9375 197.114Z" fill="#718EBF"/>
<rect x="61" y="15" width="15" height="178" rx="7.5" fill="#1814F3"/>
<rect x="88" y="102" width="15" height="91" rx="7.5" fill="#16DBCC"/>
<rect x="151" y="63" width="15" height="130" rx="7.5" fill="#1814F3"/>
<rect x="178" y="144" width="15" height="49" rx="7.5" fill="#16DBCC"/>
<rect x="241" y="71" width="15" height="122" rx="7.5" fill="#1814F3"/>
<rect x="268" y="95" width="15" height="98" rx="7.5" fill="#16DBCC"/>
<rect x="331" y="15" width="15" height="178" rx="7.5" fill="#1814F3"/>
<rect x="358" y="55" width="15" height="138" rx="7.5" fill="#16DBCC"/>
<rect x="421" y="136" width="15" height="57" rx="7.5" fill="#1814F3"/>
<rect x="448" y="102" width="15" height="91" rx="7.5" fill="#16DBCC"/>
<rect x="511" y="48" width="15" height="145" rx="7.5" fill="#1814F3"/>
<rect x="538" y="102" width="15" height="91" rx="7.5" fill="#16DBCC"/>
<rect x="601" y="46" width="15" height="147" rx="7.5" fill="#1814F3"/>
<rect x="628" y="67" width="15" height="126" rx="7.5" fill="#16DBCC"/>
</svg>
